<svg width="17" height="18" viewBox="0 0 17 18" fill="none" xmlns="http://www.w3.org/2000/svg">
<path d="M15.1615 6.76091C14.4052 7.18631 13.8275 7.92122 13.6297 8.83607C13.2949 10.3834 14.1622 11.911 15.6046 12.4459" stroke="white"/>
<path d="M2.22927 5.89381C2.92413 6.36856 3.42763 7.11949 3.56394 8.01715C3.80162 9.58233 2.84084 11.0529 1.36791 11.4969" stroke="white"/>
<path d="M15.6614 9.56169C15.6614 10.6128 15.4598 11.359 15.1551 11.9C14.8547 12.4333 14.4179 12.8315 13.8344 13.134C12.6098 13.7687 10.8138 13.9488 8.58069 13.9488C6.34755 13.9488 4.55162 13.7687 3.32695 13.134C2.74342 12.8315 2.30671 12.4333 2.00628 11.9C1.70154 11.359 1.5 10.6128 1.5 9.56169C1.5 7.58345 2.64458 5.63916 4.21909 4.14303C4.99553 3.40525 5.84377 2.80961 6.63759 2.40304C7.44882 1.98756 8.12811 1.80762 8.58069 1.80762C9.03327 1.80762 9.71255 1.98756 10.5238 2.40304C11.3176 2.80961 12.1658 3.40525 12.9423 4.14303C14.5168 5.63916 15.6614 7.58345 15.6614 9.56169Z" stroke="white" stroke-width="2"/>
<path d="M4.65764 14.9546C4.64899 14.931 4.64416 14.913 4.6416 14.9018L4.6416 13.555C4.7561 13.4929 4.90446 13.4212 5.09057 13.3474C5.732 13.0929 6.83969 12.8057 8.5798 12.8057C10.3199 12.8057 11.4276 13.0929 12.069 13.3474C12.2551 13.4212 12.4035 13.4929 12.518 13.555V14.9018C12.5154 14.913 12.5106 14.931 12.502 14.9546C12.4761 15.0252 12.4085 15.1665 12.228 15.3305C11.8661 15.6595 10.9171 16.1928 8.5798 16.1928C6.24252 16.1928 5.29346 15.6595 4.93155 15.3305C4.75108 15.1665 4.68352 15.0252 4.65764 14.9546Z" fill="#13053D" stroke="white" stroke-width="2"/>
<line x1="7.50879" y1="14.1021" x2="7.50879" y2="14.2244" stroke="white" stroke-linecap="round"/>
<line x1="10.2012" y1="14.1021" x2="10.2012" y2="14.2244" stroke="white" stroke-linecap="round"/>
<circle cx="9.03116" cy="6.19376" r="2.64249" fill="#13053D" stroke="white"/>
</svg>
