<svg width="29" height="30" viewBox="0 0 29 30" fill="none" xmlns="http://www.w3.org/2000/svg">
<g filter="url(#filter0_d_4237_27356)">
<path d="M21.1615 12.7609C20.4052 13.1863 19.8275 13.9212 19.6297 14.8361C19.2949 16.3834 20.1622 17.911 21.6046 18.4459" stroke="white"/>
<path d="M8.22927 11.8938C8.92413 12.3686 9.42763 13.1195 9.56394 14.0171C9.80162 15.5823 8.84084 17.0529 7.36791 17.4969" stroke="white"/>
<path d="M21.6614 15.5617C21.6614 16.6128 21.4598 17.359 21.1551 17.9C20.8547 18.4333 20.4179 18.8315 19.8344 19.134C18.6098 19.7687 16.8138 19.9488 14.5807 19.9488C12.3475 19.9488 10.5516 19.7687 9.32695 19.134C8.74342 18.8315 8.30671 18.4333 8.00628 17.9C7.70154 17.359 7.5 16.6128 7.5 15.5617C7.5 13.5834 8.64458 11.6392 10.2191 10.143C10.9955 9.40525 11.8438 8.80961 12.6376 8.40304C13.4488 7.98756 14.1281 7.80762 14.5807 7.80762C15.0333 7.80762 15.7126 7.98756 16.5238 8.40304C17.3176 8.80961 18.1658 9.40525 18.9423 10.143C20.5168 11.6392 21.6614 13.5834 21.6614 15.5617Z" stroke="white" stroke-width="2"/>
<path d="M10.6576 20.9546C10.649 20.931 10.6442 20.913 10.6416 20.9018L10.6416 19.555C10.7561 19.4929 10.9045 19.4212 11.0906 19.3474C11.732 19.0929 12.8397 18.8057 14.5798 18.8057C16.3199 18.8057 17.4276 19.0929 18.069 19.3474C18.2551 19.4212 18.4035 19.4929 18.518 19.555V20.9018C18.5154 20.913 18.5106 20.931 18.502 20.9546C18.4761 21.0252 18.4085 21.1665 18.228 21.3305C17.8661 21.6595 16.9171 22.1928 14.5798 22.1928C12.2425 22.1928 11.2935 21.6595 10.9315 21.3305C10.7511 21.1665 10.6835 21.0252 10.6576 20.9546Z" fill="#13053D" stroke="white" stroke-width="2"/>
<line x1="13.5088" y1="20.1021" x2="13.5088" y2="20.2244" stroke="white" stroke-linecap="round"/>
<line x1="16.2012" y1="20.1021" x2="16.2012" y2="20.2244" stroke="white" stroke-linecap="round"/>
<circle cx="15.0312" cy="12.1938" r="2.64249" fill="#13053D" stroke="white"/>
</g>
<defs>
<filter id="filter0_d_4237_27356" x="0.5" y="0.807617" width="28.1611" height="28.3853" filterUnits="userSpaceOnUse" color-interpolation-filters="sRGB">
<feFlood flood-opacity="0" result="BackgroundImageFix"/>
<feColorMatrix in="SourceAlpha" type="matrix" values="0 0 0 0 0 0 0 0 0 0 0 0 0 0 0 0 0 0 127 0" result="hardAlpha"/>
<feOffset/>
<feGaussianBlur stdDeviation="3"/>
<feComposite in2="hardAlpha" operator="out"/>
<feColorMatrix type="matrix" values="0 0 0 0 1 0 0 0 0 1 0 0 0 0 1 0 0 0 1 0"/>
<feBlend mode="normal" in2="BackgroundImageFix" result="effect1_dropShadow_4237_27356"/>
<feBlend mode="normal" in="SourceGraphic" in2="effect1_dropShadow_4237_27356" result="shape"/>
</filter>
</defs>
</svg>
