<svg width="30" height="30" viewBox="0 0 24 25" fill="none" xmlns="http://www.w3.org/2000/svg">
<path d="M12 17.75C14.8995 17.75 17.25 15.3995 17.25 12.5C17.25 9.60051 14.8995 7.25 12 7.25C9.10051 7.25 6.75 9.60051 6.75 12.5C6.75 15.3995 9.10051 17.75 12 17.75Z" stroke="white" stroke-width="2" stroke-linecap="round" stroke-linejoin="round"/>
<path d="M20.2498 11.7502L21.2161 10.3008C21.279 10.2075 21.3207 10.1014 21.338 9.99009C21.3554 9.87881 21.348 9.76507 21.3165 9.65696C21.1342 9.05668 20.8939 8.47556 20.5991 7.92181C20.5451 7.82323 20.47 7.73779 20.3791 7.6716C20.2883 7.6054 20.184 7.56007 20.0736 7.53886L18.3638 7.19686L17.3031 6.13622L16.9611 4.42635C16.9399 4.31597 16.8946 4.21162 16.8284 4.12078C16.7622 4.02994 16.6767 3.95483 16.5782 3.90082C16.0244 3.60605 15.4432 3.36583 14.843 3.18356C14.7348 3.152 14.6211 3.14464 14.5098 3.16199C14.3985 3.17934 14.2925 3.22097 14.1991 3.28394L12.7498 4.25015H11.2498L9.80045 3.28394C9.70707 3.22097 9.60097 3.17934 9.4897 3.16199C9.37842 3.14464 9.26468 3.152 9.15657 3.18356C8.55629 3.36583 7.97516 3.60605 7.42138 3.90082C7.32279 3.95482 7.23734 4.02993 7.17113 4.12078C7.10493 4.21163 7.0596 4.31598 7.03839 4.42637L6.69648 6.13613L5.63575 7.19686L3.92597 7.53877C3.81558 7.55998 3.71124 7.60531 3.6204 7.67151C3.52955 7.73771 3.45444 7.82315 3.40044 7.92173C3.10562 8.47551 2.86536 9.05666 2.68306 9.65696C2.65151 9.76508 2.64415 9.87881 2.6615 9.99008C2.67886 10.1014 2.72049 10.2075 2.78346 10.3008L3.74967 11.7501V13.2501L2.78345 14.6995C2.72049 14.7928 2.67886 14.8989 2.66151 15.0102C2.64416 15.1215 2.65152 15.2352 2.68307 15.3433C2.86532 15.9436 3.10554 16.5248 3.40033 17.0786C3.45434 17.1772 3.52945 17.2626 3.62029 17.3288C3.71114 17.395 3.81547 17.4403 3.92586 17.4615L5.63575 17.8035L6.69639 18.8642L7.0383 20.574C7.05951 20.6844 7.10484 20.7888 7.17103 20.8796C7.23723 20.9705 7.32267 21.0456 7.42125 21.0996C7.975 21.3944 8.55613 21.6346 9.15642 21.8169C9.26452 21.8484 9.37825 21.8558 9.48952 21.8384C9.60079 21.8211 9.70687 21.7794 9.80024 21.7165L11.2497 20.7502H12.7497L14.1991 21.7165C14.2925 21.7795 14.3985 21.8211 14.5098 21.8385C14.6211 21.8558 14.7348 21.8485 14.8429 21.8169C15.4432 21.6347 16.0243 21.3944 16.5781 21.0997C16.6767 21.0457 16.7621 20.9706 16.8283 20.8797C16.8945 20.7889 16.9398 20.6845 16.961 20.5741L17.303 18.8643L18.3637 17.8035L20.0736 17.4616C20.1839 17.4404 20.2883 17.3951 20.3791 17.3289C20.47 17.2627 20.5451 17.1772 20.5991 17.0787C20.8939 16.5249 21.1342 15.9438 21.3165 15.3435C21.348 15.2354 21.3554 15.1217 21.338 15.0104C21.3207 14.8991 21.279 14.793 21.2161 14.6996L20.2498 13.2502V11.7502Z" stroke="white" stroke-width="2" stroke-linecap="round" stroke-linejoin="round"/>
</svg>
