<svg width="30" height="30" viewBox="0 0 24 25" fill="none" xmlns="http://www.w3.org/2000/svg">
<path fill-rule="evenodd" clip-rule="evenodd" d="M15.4506 1.45344C16.5126 1.15 17.6196 1.76498 17.923 2.82705C17.9741 3.00573 18 3.19066 18 3.37649V5.05076H20C21.1046 5.05076 22 5.94619 22 7.05076V19.0508C22 20.1553 21.1046 21.0508 20 21.0508H4C2.89543 21.0508 2 20.1553 2 19.0508H2.0267C2.00895 18.9432 2 18.8343 2 18.725V6.80506C2 5.9121 2.59195 5.12733 3.45056 4.88201L15.4506 1.45344ZM10.1401 19.0508H20V11.0508H18V15.2965C18 16.1894 17.408 16.9742 16.5494 17.2195L10.1401 19.0508ZM20 7.05076V9.05076H18V7.05076H20ZM4 6.80504V18.725L16 15.2964V3.37646L4 6.80504ZM14 9.05076C14 9.60305 13.5523 10.0508 13 10.0508C12.4477 10.0508 12 9.60305 12 9.05076C12 8.49848 12.4477 8.05076 13 8.05076C13.5523 8.05076 14 8.49848 14 9.05076Z" fill="white"/>
</svg>
